<svg width="159" height="24" viewBox="0 0 159 24" fill="none" xmlns="http://www.w3.org/2000/svg">
    <path d="M1.996 6.49597C1.996 5.3025 2.47011 4.1579 3.31402 3.31399C4.15794 2.47008 5.30253 1.99597 6.496 1.99597H11.504C12.6672 1.99614 13.7852 2.44674 14.6235 3.25328C15.4617 4.05981 15.955 5.1596 16 6.32197V11.676C15.9653 12.5771 15.6608 13.447 15.1259 14.1731C14.591 14.8991 13.8504 15.4478 13 15.748L13.004 6.49597C13.004 6.09815 12.846 5.71662 12.5647 5.43531C12.2834 5.15401 11.9018 4.99597 11.504 4.99597H6.496C6.09818 4.99597 5.71665 5.15401 5.43534 5.43531C5.15404 5.71662 4.996 6.09815 4.996 6.49597V11.504C4.996 12.158 5.416 12.714 6 12.92V15.976C4.89926 15.8539 3.88219 15.3302 3.14344 14.5051C2.40469 13.68 1.99615 12.6115 1.996 11.504V6.49597ZM8 17.5C8 18.6934 8.47411 19.838 9.31802 20.682C10.1619 21.5259 11.3065 22 12.5 22H17.5C18.6935 22 19.8381 21.5259 20.682 20.682C21.5259 19.838 22 18.6934 22 17.5V12.5C22 11.3931 21.592 10.3251 20.8541 9.50006C20.1161 8.67505 19.1 8.15096 18 8.02797V11.086C18.582 11.292 19 11.846 19 12.5V17.5C19 17.8978 18.842 18.2793 18.5607 18.5606C18.2794 18.8419 17.8978 19 17.5 19H12.5C12.1022 19 11.7206 18.8419 11.4393 18.5606C11.158 18.2793 11 17.8978 11 17.5V8.25597C10.1224 8.56624 9.36266 9.14101 8.82537 9.90109C8.28809 10.6612 7.99972 11.5692 8 12.5V17.5Z" fill="black"/>
    <path d="M43.192 21.36L38.152 16.344L40.168 14.328L45.184 19.344L43.192 21.36ZM37.096 21.36C35.368 21.36 33.876 20.984 32.62 20.232C31.372 19.48 30.408 18.428 29.728 17.076C29.056 15.724 28.72 14.152 28.72 12.36C28.72 10.568 29.056 8.996 29.728 7.644C30.408 6.292 31.372 5.24 32.62 4.488C33.876 3.736 35.368 3.36 37.096 3.36C38.824 3.36 40.312 3.736 41.56 4.488C42.816 5.24 43.78 6.292 44.452 7.644C45.132 8.996 45.472 10.568 45.472 12.36C45.472 14.152 45.132 15.724 44.452 17.076C43.78 18.428 42.816 19.48 41.56 20.232C40.312 20.984 38.824 21.36 37.096 21.36ZM37.096 18.288C38.192 18.304 39.104 18.068 39.832 17.58C40.56 17.092 41.104 16.4 41.464 15.504C41.832 14.608 42.016 13.56 42.016 12.36C42.016 11.16 41.832 10.12 41.464 9.24C41.104 8.36 40.56 7.676 39.832 7.188C39.104 6.7 38.192 6.448 37.096 6.432C36 6.416 35.088 6.652 34.36 7.14C33.632 7.628 33.084 8.32 32.716 9.216C32.356 10.112 32.176 11.16 32.176 12.36C32.176 13.56 32.356 14.6 32.716 15.48C33.084 16.36 33.632 17.044 34.36 17.532C35.088 18.02 36 18.272 37.096 18.288ZM54.8995 21.36C53.5075 21.36 52.2835 21.08 51.2275 20.52C50.1715 19.952 49.3475 19.156 48.7555 18.132C48.1635 17.108 47.8675 15.904 47.8675 14.52V3.744L51.1795 3.72V14.496C51.1795 15.064 51.2755 15.58 51.4675 16.044C51.6595 16.508 51.9235 16.908 52.2595 17.244C52.6035 17.58 52.9995 17.84 53.4475 18.024C53.9035 18.2 54.3875 18.288 54.8995 18.288C55.4275 18.288 55.9155 18.196 56.3635 18.012C56.8195 17.828 57.2155 17.568 57.5515 17.232C57.8875 16.896 58.1475 16.496 58.3315 16.032C58.5235 15.568 58.6195 15.056 58.6195 14.496V3.72H61.9315V14.52C61.9315 15.904 61.6355 17.108 61.0435 18.132C60.4515 19.156 59.6275 19.952 58.5715 20.52C57.5155 21.08 56.2915 21.36 54.8995 21.36ZM65.5216 21V3.72H68.7856V21H65.5216ZM79.7991 21.36C78.0711 21.36 76.5791 20.984 75.3231 20.232C74.0751 19.48 73.1111 18.428 72.4311 17.076C71.7591 15.724 71.4231 14.152 71.4231 12.36C71.4231 10.568 71.7591 8.996 72.4311 7.644C73.1111 6.292 74.0751 5.24 75.3231 4.488C76.5791 3.736 78.0711 3.36 79.7991 3.36C81.7831 3.36 83.4471 3.852 84.7911 4.836C86.1431 5.82 87.0951 7.152 87.6471 8.832L84.3591 9.744C84.0391 8.696 83.4991 7.884 82.7391 7.308C81.9791 6.724 80.9991 6.432 79.7991 6.432C78.7031 6.432 77.7871 6.676 77.0511 7.164C76.3231 7.652 75.7751 8.34 75.4071 9.228C75.0391 10.116 74.8551 11.16 74.8551 12.36C74.8551 13.56 75.0391 14.604 75.4071 15.492C75.7751 16.38 76.3231 17.068 77.0511 17.556C77.7871 18.044 78.7031 18.288 79.7991 18.288C80.9991 18.288 81.9791 17.996 82.7391 17.412C83.4991 16.828 84.0391 16.016 84.3591 14.976L87.6471 15.888C87.0951 17.568 86.1431 18.9 84.7911 19.884C83.4471 20.868 81.7831 21.36 79.7991 21.36ZM90.2894 21V3.72H93.5534V11.688L100.129 3.72H104.113L96.8894 12.24L104.569 21H100.441L93.5534 13.128V21H90.2894ZM106.49 21V3.72H109.754V17.952H117.194V21H106.49ZM119.475 21V3.72H122.739V21H119.475ZM126.336 21V3.72H129.648L137.16 15.24V3.72H140.472V21H137.16L129.648 9.48V21H126.336ZM143.821 21V3.72H147.085V11.688L153.661 3.72H157.645L150.421 12.24L158.101 21H153.973L147.085 13.128V21H143.821Z" fill="black"/>
</svg>
